<svg width="232" height="230" viewBox="0 0 232 230" fill="none" xmlns="http://www.w3.org/2000/svg">
<rect width="232" height="46" transform="translate(0 0.98291)" fill="#091931"/>
<path d="M81.2273 11.4829H60.7727H60.5C59.3954 11.4829 58.5 12.3786 58.5 13.4832C58.5 13.663 58.5 13.7904 58.5 13.8229V34.2774V34.4829C58.5 35.5875 59.3957 36.4829 60.5003 36.4829C60.6438 36.4829 60.744 36.4829 60.7727 36.4829H81.2273C81.256 36.4829 81.3562 36.4829 81.4997 36.4829C82.6043 36.4829 83.5 35.587 83.5 34.4824C83.5 34.3756 83.5 34.3017 83.5 34.2774V13.8229C83.5 13.7903 83.5 13.663 83.5 13.4832C83.5 12.3786 82.6043 11.4829 81.4997 11.4829C81.3562 11.4829 81.256 11.4829 81.2273 11.4829ZM73.2727 34.2774H60.7727V25.1865H73.2727V34.2774ZM73.2727 22.9138H60.7727V13.8229L73.2727 13.8229V22.9138ZM81.2273 34.2774H75.5455V13.8229H81.2273V34.2774Z" fill="white"/>
<path d="M101.773 20.7556C101.705 20.1799 101.428 19.7329 100.943 19.4147C100.458 19.0965 99.8636 18.9375 99.1591 18.9375C98.6439 18.9375 98.1932 19.0208 97.8068 19.1875C97.4242 19.3541 97.125 19.5833 96.9091 19.875C96.697 20.1666 96.5909 20.4981 96.5909 20.8693C96.5909 21.1799 96.6648 21.4469 96.8125 21.6704C96.964 21.8901 97.1572 22.0738 97.392 22.2215C97.6269 22.3655 97.8731 22.4848 98.1307 22.5795C98.3883 22.6704 98.625 22.7443 98.8409 22.8011L100.023 23.1193C100.326 23.1988 100.663 23.3087 101.034 23.4488C101.409 23.589 101.767 23.7803 102.108 24.0227C102.453 24.2613 102.737 24.5681 102.96 24.9431C103.184 25.3181 103.295 25.7784 103.295 26.3238C103.295 26.9526 103.131 27.5208 102.801 28.0284C102.475 28.5359 101.998 28.9393 101.369 29.2386C100.744 29.5378 99.9848 29.6875 99.0909 29.6875C98.2576 29.6875 97.536 29.553 96.9261 29.284C96.3201 29.0151 95.8428 28.6401 95.4943 28.159C95.1496 27.678 94.9545 27.1193 94.9091 26.4829H96.3636C96.4015 26.9223 96.5492 27.2859 96.8068 27.5738C97.0682 27.8579 97.3977 28.07 97.7955 28.2102C98.197 28.3465 98.6288 28.4147 99.0909 28.4147C99.6288 28.4147 100.112 28.3276 100.54 28.1534C100.968 27.9753 101.307 27.7291 101.557 27.4147C101.807 27.0965 101.932 26.7253 101.932 26.3011C101.932 25.9147 101.824 25.6003 101.608 25.3579C101.392 25.1155 101.108 24.9185 100.756 24.767C100.403 24.6155 100.023 24.4829 99.6136 24.3693L98.1818 23.9602C97.2727 23.6988 96.553 23.3257 96.0227 22.8409C95.4924 22.356 95.2273 21.7215 95.2273 20.9375C95.2273 20.2859 95.4034 19.7178 95.7557 19.2329C96.1117 18.7443 96.589 18.3655 97.1875 18.0965C97.7898 17.8238 98.4621 17.6875 99.2045 17.6875C99.9545 17.6875 100.621 17.8219 101.205 18.0909C101.788 18.356 102.25 18.7197 102.591 19.1818C102.936 19.6439 103.117 20.1685 103.136 20.7556H101.773ZM110.93 25.9147V20.7556H112.271V29.4829H110.93V28.0056H110.839C110.635 28.4488 110.317 28.8257 109.885 29.1363C109.453 29.4431 108.908 29.5965 108.249 29.5965C107.703 29.5965 107.218 29.4772 106.794 29.2386C106.37 28.9962 106.036 28.6325 105.794 28.1477C105.552 27.659 105.43 27.0435 105.43 26.3011V20.7556H106.771V26.2102C106.771 26.8465 106.949 27.3541 107.305 27.7329C107.665 28.1117 108.124 28.3011 108.68 28.3011C109.014 28.3011 109.353 28.2159 109.697 28.0454C110.046 27.875 110.338 27.6136 110.572 27.2613C110.811 26.909 110.93 26.4602 110.93 25.9147ZM114.727 29.4829V20.7556H116.023V22.1193H116.136C116.318 21.6534 116.612 21.2916 117.017 21.034C117.422 20.7727 117.909 20.642 118.477 20.642C119.053 20.642 119.532 20.7727 119.915 21.034C120.301 21.2916 120.602 21.6534 120.818 22.1193H120.909C121.133 21.6685 121.468 21.3106 121.915 21.0454C122.362 20.7765 122.898 20.642 123.523 20.642C124.303 20.642 124.941 20.8863 125.438 21.375C125.934 21.8598 126.182 22.6155 126.182 23.642V29.4829H124.841V23.642C124.841 22.9981 124.665 22.5378 124.312 22.2613C123.96 21.9848 123.545 21.8465 123.068 21.8465C122.455 21.8465 121.979 22.0322 121.642 22.4034C121.305 22.7708 121.136 23.2367 121.136 23.8011V29.4829H119.773V23.5056C119.773 23.0094 119.612 22.6098 119.29 22.3068C118.968 22 118.553 21.8465 118.045 21.8465C117.697 21.8465 117.371 21.9393 117.068 22.125C116.769 22.3106 116.527 22.5681 116.341 22.8977C116.159 23.2234 116.068 23.6003 116.068 24.0284V29.4829H114.727ZM128.634 29.4829V20.7556H129.929V22.1193H130.043C130.224 21.6534 130.518 21.2916 130.923 21.034C131.329 20.7727 131.815 20.642 132.384 20.642C132.959 20.642 133.438 20.7727 133.821 21.034C134.207 21.2916 134.509 21.6534 134.724 22.1193H134.815C135.039 21.6685 135.374 21.3106 135.821 21.0454C136.268 20.7765 136.804 20.642 137.429 20.642C138.209 20.642 138.848 20.8863 139.344 21.375C139.84 21.8598 140.088 22.6155 140.088 23.642V29.4829H138.747V23.642C138.747 22.9981 138.571 22.5378 138.219 22.2613C137.866 21.9848 137.452 21.8465 136.974 21.8465C136.361 21.8465 135.885 22.0322 135.548 22.4034C135.211 22.7708 135.043 23.2367 135.043 23.8011V29.4829H133.679V23.5056C133.679 23.0094 133.518 22.6098 133.196 22.3068C132.874 22 132.459 21.8465 131.952 21.8465C131.603 21.8465 131.277 21.9393 130.974 22.125C130.675 22.3106 130.433 22.5681 130.247 22.8977C130.065 23.2234 129.974 23.6003 129.974 24.0284V29.4829H128.634ZM145.108 29.6875C144.555 29.6875 144.053 29.5833 143.602 29.375C143.152 29.1628 142.794 28.8579 142.528 28.4602C142.263 28.0587 142.131 27.5738 142.131 27.0056C142.131 26.5056 142.229 26.1003 142.426 25.7897C142.623 25.4753 142.886 25.2291 143.216 25.0511C143.545 24.8731 143.909 24.7405 144.307 24.6534C144.708 24.5625 145.112 24.4905 145.517 24.4375C146.047 24.3693 146.477 24.3181 146.807 24.284C147.14 24.2462 147.383 24.1837 147.534 24.0965C147.689 24.0094 147.767 23.8579 147.767 23.642V23.5965C147.767 23.0359 147.614 22.6003 147.307 22.2897C147.004 21.9791 146.544 21.8238 145.926 21.8238C145.286 21.8238 144.784 21.964 144.42 22.2443C144.057 22.5246 143.801 22.8238 143.653 23.142L142.381 22.6875C142.608 22.1572 142.911 21.7443 143.29 21.4488C143.672 21.1496 144.089 20.9412 144.54 20.8238C144.994 20.7026 145.441 20.642 145.881 20.642C146.161 20.642 146.483 20.6761 146.847 20.7443C147.214 20.8087 147.568 20.9431 147.909 21.1477C148.254 21.3522 148.54 21.6609 148.767 22.0738C148.994 22.4867 149.108 23.0397 149.108 23.7329V29.4829H147.767V28.3011H147.699C147.608 28.4905 147.456 28.6931 147.244 28.909C147.032 29.125 146.75 29.3087 146.398 29.4602C146.045 29.6117 145.616 29.6875 145.108 29.6875ZM145.312 28.4829C145.843 28.4829 146.29 28.3787 146.653 28.1704C147.021 27.9621 147.297 27.6931 147.483 27.3636C147.672 27.034 147.767 26.6875 147.767 26.3238V25.0965C147.71 25.1647 147.585 25.2272 147.392 25.284C147.203 25.3371 146.983 25.3844 146.733 25.4261C146.487 25.464 146.246 25.4981 146.011 25.5284C145.78 25.5549 145.593 25.5776 145.449 25.5965C145.1 25.642 144.775 25.7159 144.472 25.8181C144.172 25.9166 143.93 26.0662 143.744 26.267C143.563 26.464 143.472 26.7329 143.472 27.0738C143.472 27.5397 143.644 27.892 143.989 28.1306C144.337 28.3655 144.778 28.4829 145.312 28.4829ZM151.555 29.4829V20.7556H152.851V22.0738H152.942C153.101 21.642 153.389 21.2916 153.805 21.0227C154.222 20.7537 154.692 20.6193 155.214 20.6193C155.313 20.6193 155.436 20.6212 155.584 20.625C155.732 20.6287 155.843 20.6344 155.919 20.642V22.0056C155.874 21.9943 155.769 21.9772 155.607 21.9545C155.447 21.928 155.279 21.9147 155.101 21.9147C154.677 21.9147 154.298 22.0037 153.964 22.1818C153.635 22.356 153.374 22.5984 153.18 22.909C152.991 23.2159 152.896 23.5662 152.896 23.9602V29.4829H151.555ZM158.638 32.7556C158.411 32.7556 158.208 32.7367 158.03 32.6988C157.852 32.6647 157.729 32.6306 157.661 32.5965L158.001 31.4147C158.327 31.4981 158.615 31.5284 158.865 31.5056C159.115 31.4829 159.337 31.3712 159.53 31.1704C159.727 30.9734 159.907 30.6534 160.07 30.2102L160.32 29.5284L157.092 20.7556H158.547L160.956 27.7102H161.047L163.456 20.7556H164.911L161.206 30.7556C161.039 31.2064 160.833 31.5795 160.587 31.875C160.34 32.1742 160.054 32.3958 159.729 32.5397C159.407 32.6837 159.043 32.7556 158.638 32.7556Z" fill="white"/>
<mask id="mask0_47_447" style="mask-type:alpha" maskUnits="userSpaceOnUse" x="56" y="69" width="30" height="31">
<rect x="56" y="69.9829" width="30" height="30" fill="#D9D9D9"/>
</mask>
<g mask="url(#mask0_47_447)">
<path d="M60.6265 97.1853C59.9558 97.1853 59.3816 96.9465 58.904 96.4688C58.4263 95.9912 58.1875 95.417 58.1875 94.7462V77.6731C58.1875 77.0023 58.4263 76.4282 58.904 75.9505C59.3816 75.4729 59.9558 75.2341 60.6265 75.2341H71.5107L69.0716 77.6731H60.6265V94.7462H77.6997V86.2706L80.1387 83.8316V94.7462C80.1387 95.417 79.8999 95.9912 79.4223 96.4688C78.9446 96.9465 78.3704 97.1853 77.6997 97.1853H60.6265ZM74.2546 75.9353L75.9924 77.6426L67.9436 85.6914V87.4292H69.6509L77.7302 79.3499L79.468 81.0572L71.3887 89.1365C71.1651 89.3601 70.906 89.5379 70.6113 89.67C70.3166 89.8021 70.0066 89.8682 69.6814 89.8682H66.7241C66.3786 89.8682 66.0889 89.7513 65.8552 89.5176C65.6214 89.2839 65.5046 88.9942 65.5046 88.6487V85.6914C65.5046 85.3662 65.5655 85.0562 65.6875 84.7615C65.8095 84.4668 65.9822 84.2076 66.2058 83.9841L74.2546 75.9353ZM79.468 81.0572L74.2546 75.9353L77.3034 72.8865C77.7912 72.3987 78.3755 72.1548 79.0564 72.1548C79.7373 72.1548 80.3115 72.3987 80.779 72.8865L82.4863 74.6243C82.9538 75.0918 83.1875 75.6609 83.1875 76.3316C83.1875 77.0023 82.9538 77.5715 82.4863 78.0389L79.468 81.0572Z" fill="#CDCDCD"/>
</g>
<path d="M95.8864 90.4829H94.4091L98.6818 78.8465H100.136L104.409 90.4829H102.932L99.4545 80.6875H99.3636L95.8864 90.4829ZM96.4318 85.9375H102.386V87.1875H96.4318V85.9375ZM109.335 90.6647C108.608 90.6647 107.966 90.481 107.409 90.1136C106.852 89.7424 106.417 89.2197 106.102 88.5454C105.788 87.8674 105.631 87.0662 105.631 86.142C105.631 85.2253 105.788 84.4299 106.102 83.7556C106.417 83.0814 106.854 82.5606 107.415 82.1931C107.975 81.8257 108.623 81.642 109.358 81.642C109.926 81.642 110.375 81.7367 110.705 81.9261C111.038 82.1117 111.292 82.3238 111.466 82.5625C111.644 82.7973 111.782 82.9905 111.881 83.142H111.994V78.8465H113.335V90.4829H112.04V89.142H111.881C111.782 89.3011 111.642 89.5018 111.46 89.7443C111.278 89.9829 111.019 90.1969 110.682 90.3863C110.345 90.5719 109.896 90.6647 109.335 90.6647ZM109.517 89.4602C110.055 89.4602 110.509 89.32 110.881 89.0397C111.252 88.7556 111.534 88.3636 111.727 87.8636C111.92 87.3598 112.017 86.7784 112.017 86.1193C112.017 85.4678 111.922 84.8977 111.733 84.409C111.544 83.9166 111.263 83.534 110.892 83.2613C110.521 82.9848 110.063 82.8465 109.517 82.8465C108.949 82.8465 108.475 82.9924 108.097 83.284C107.722 83.5719 107.439 83.964 107.25 84.4602C107.064 84.9526 106.972 85.5056 106.972 86.1193C106.972 86.7405 107.066 87.3049 107.256 87.8125C107.449 88.3162 107.733 88.7178 108.108 89.017C108.487 89.3125 108.956 89.4602 109.517 89.4602ZM119.273 90.6647C118.545 90.6647 117.903 90.481 117.347 90.1136C116.79 89.7424 116.354 89.2197 116.04 88.5454C115.725 87.8674 115.568 87.0662 115.568 86.142C115.568 85.2253 115.725 84.4299 116.04 83.7556C116.354 83.0814 116.792 82.5606 117.352 82.1931C117.913 81.8257 118.561 81.642 119.295 81.642C119.864 81.642 120.313 81.7367 120.642 81.9261C120.975 82.1117 121.229 82.3238 121.403 82.5625C121.581 82.7973 121.72 82.9905 121.818 83.142H121.932V78.8465H123.273V90.4829H121.977V89.142H121.818C121.72 89.3011 121.58 89.5018 121.398 89.7443C121.216 89.9829 120.956 90.1969 120.619 90.3863C120.282 90.5719 119.833 90.6647 119.273 90.6647ZM119.455 89.4602C119.992 89.4602 120.447 89.32 120.818 89.0397C121.189 88.7556 121.472 88.3636 121.665 87.8636C121.858 87.3598 121.955 86.7784 121.955 86.1193C121.955 85.4678 121.86 84.8977 121.67 84.409C121.481 83.9166 121.201 83.534 120.83 83.2613C120.458 82.9848 120 82.8465 119.455 82.8465C118.886 82.8465 118.413 82.9924 118.034 83.284C117.659 83.5719 117.377 83.964 117.188 84.4602C117.002 84.9526 116.909 85.5056 116.909 86.1193C116.909 86.7405 117.004 87.3049 117.193 87.8125C117.386 88.3162 117.67 88.7178 118.045 89.017C118.424 89.3125 118.894 89.4602 119.455 89.4602ZM129.96 80.0965V78.8465H138.688V80.0965H135.028V90.4829H133.619V80.0965H129.96ZM142.061 90.6875C141.508 90.6875 141.006 90.5833 140.555 90.375C140.105 90.1628 139.747 89.8579 139.482 89.4602C139.216 89.0587 139.084 88.5738 139.084 88.0056C139.084 87.5056 139.182 87.1003 139.379 86.7897C139.576 86.4753 139.839 86.2291 140.169 86.0511C140.499 85.8731 140.862 85.7405 141.26 85.6534C141.661 85.5625 142.065 85.4905 142.47 85.4375C143 85.3693 143.43 85.3181 143.76 85.284C144.093 85.2462 144.336 85.1837 144.487 85.0965C144.643 85.0094 144.72 84.8579 144.72 84.642V84.5965C144.72 84.0359 144.567 83.6003 144.26 83.2897C143.957 82.9791 143.497 82.8238 142.879 82.8238C142.239 82.8238 141.737 82.964 141.374 83.2443C141.01 83.5246 140.754 83.8238 140.607 84.142L139.334 83.6875C139.561 83.1572 139.864 82.7443 140.243 82.4488C140.625 82.1496 141.042 81.9412 141.493 81.8238C141.947 81.7026 142.394 81.642 142.834 81.642C143.114 81.642 143.436 81.6761 143.8 81.7443C144.167 81.8087 144.521 81.9431 144.862 82.1477C145.207 82.3522 145.493 82.6609 145.72 83.0738C145.947 83.4867 146.061 84.0397 146.061 84.7329V90.4829H144.72V89.3011H144.652C144.561 89.4905 144.41 89.6931 144.197 89.909C143.985 90.125 143.703 90.3087 143.351 90.4602C142.999 90.6117 142.569 90.6875 142.061 90.6875ZM142.266 89.4829C142.796 89.4829 143.243 89.3787 143.607 89.1704C143.974 88.9621 144.25 88.6931 144.436 88.3636C144.625 88.034 144.72 87.6875 144.72 87.3238V86.0965C144.663 86.1647 144.538 86.2272 144.345 86.284C144.156 86.3371 143.936 86.3844 143.686 86.4261C143.44 86.464 143.199 86.4981 142.964 86.5284C142.733 86.5549 142.546 86.5776 142.402 86.5965C142.054 86.642 141.728 86.7159 141.425 86.8181C141.125 86.9166 140.883 87.0662 140.697 87.267C140.516 87.464 140.425 87.7329 140.425 88.0738C140.425 88.5397 140.597 88.892 140.942 89.1306C141.29 89.3655 141.732 89.4829 142.266 89.4829ZM154.69 83.7102L153.486 84.0511C153.41 83.8503 153.298 83.6553 153.151 83.4659C153.007 83.2727 152.81 83.1136 152.56 82.9886C152.31 82.8636 151.99 82.8011 151.599 82.8011C151.065 82.8011 150.62 82.9242 150.264 83.1704C149.912 83.4128 149.736 83.7215 149.736 84.0965C149.736 84.4299 149.857 84.6931 150.099 84.8863C150.342 85.0795 150.721 85.2405 151.236 85.3693L152.531 85.6875C153.312 85.8768 153.893 86.1666 154.276 86.5568C154.658 86.9431 154.849 87.4412 154.849 88.0511C154.849 88.5511 154.705 88.9981 154.418 89.392C154.134 89.7859 153.736 90.0965 153.224 90.3238C152.713 90.5511 152.118 90.6647 151.44 90.6647C150.55 90.6647 149.813 90.4715 149.23 90.0852C148.647 89.6988 148.277 89.1344 148.122 88.392L149.395 88.0738C149.516 88.5435 149.745 88.8958 150.082 89.1306C150.423 89.3655 150.868 89.4829 151.418 89.4829C152.043 89.4829 152.539 89.3503 152.906 89.0852C153.277 88.8162 153.463 88.4943 153.463 88.1193C153.463 87.8162 153.357 87.5625 153.145 87.3579C152.933 87.1496 152.607 86.9943 152.168 86.892L150.713 86.5511C149.914 86.3617 149.327 86.0681 148.952 85.6704C148.58 85.2689 148.395 84.767 148.395 84.1647C148.395 83.6723 148.533 83.2367 148.81 82.8579C149.09 82.4791 149.471 82.1818 149.952 81.9659C150.437 81.75 150.986 81.642 151.599 81.642C152.463 81.642 153.141 81.8314 153.634 82.2102C154.13 82.589 154.482 83.089 154.69 83.7102ZM158.118 87.3011L158.095 85.642H158.368L162.186 81.7556H163.845L159.777 85.8693H159.663L158.118 87.3011ZM156.868 90.4829V78.8465H158.209V90.4829H156.868ZM162.413 90.4829L159.004 86.1647L159.959 85.2329L164.118 90.4829H162.413Z" fill="#CDCDCD"/>
<path d="M78.9544 135.756L78.9545 156.21C78.9538 156.813 78.7142 157.39 78.2881 157.816C77.862 158.242 77.2843 158.482 76.6817 158.483L72.1363 158.483C71.5338 158.482 70.956 158.242 70.53 157.816C70.1039 157.39 69.8642 156.813 69.8636 156.21L69.8636 135.756C69.8642 135.153 70.1039 134.575 70.53 134.149C70.956 133.723 71.5338 133.484 72.1363 133.483L76.6817 133.483C77.2843 133.484 77.862 133.723 78.2881 134.149C78.7142 134.575 78.9538 135.153 78.9544 135.756ZM72.1363 156.21L76.6817 156.21L76.6817 135.756L72.1363 135.756L72.1363 156.21ZM72.1363 135.756L72.1363 156.21C72.1357 156.813 71.8961 157.39 71.47 157.816C71.0439 158.242 70.4662 158.482 69.8636 158.483L65.3182 158.483C64.7157 158.482 64.1379 158.242 63.7119 157.816C63.2858 157.39 63.0461 156.813 63.0455 156.21L63.0455 135.756C63.0461 135.153 63.2858 134.575 63.7119 134.149C64.1379 133.723 64.7157 133.484 65.3182 133.483L69.8636 133.483C70.4662 133.484 71.0439 133.723 71.47 134.149C71.8961 134.575 72.1357 135.153 72.1363 135.756ZM65.3182 156.21L69.8636 156.21L69.8636 135.756L65.3182 135.756L65.3182 156.21ZM65.3182 135.756L65.3182 156.21C65.3176 156.813 65.078 157.39 64.6519 157.816C64.2258 158.242 63.6481 158.482 63.0455 158.483L58.5001 158.483C57.8975 158.482 57.3198 158.242 56.8937 157.816C56.4677 157.39 56.228 156.813 56.2274 156.21L56.2274 135.756C56.228 135.153 56.4677 134.575 56.8937 134.149C57.3198 133.723 57.8975 133.484 58.5001 133.483L63.0455 133.483C63.6481 133.484 64.2258 133.723 64.6519 134.149C65.078 134.575 65.3176 135.153 65.3182 135.756ZM58.5001 156.21L63.0455 156.21L63.0455 135.756L58.5001 135.756L58.5001 156.21Z" fill="#CDCDCD"/>
<path d="M85.7726 135.756L85.7726 156.21C85.772 156.813 85.5323 157.391 85.1062 157.817C84.6802 158.243 84.1024 158.482 83.4999 158.483L78.9545 158.483C78.3519 158.482 77.7742 158.243 77.3481 157.817C76.922 157.391 76.6824 156.813 76.6817 156.21L76.6817 135.756C76.6823 135.153 76.922 134.576 77.3481 134.15C77.7742 133.723 78.3519 133.484 78.9544 133.483L83.4999 133.483C84.1024 133.484 84.6801 133.723 85.1062 134.15C85.5323 134.576 85.772 135.153 85.7726 135.756ZM78.9545 156.21L83.4999 156.21L83.4999 135.756L78.9544 135.756L78.9545 156.21Z" fill="#CDCDCD"/>
<path d="M95.4091 151.483V139.847H99.4773C100.288 139.847 100.956 139.987 101.483 140.267C102.009 140.544 102.402 140.917 102.659 141.386C102.917 141.852 103.045 142.369 103.045 142.937C103.045 143.437 102.956 143.85 102.778 144.176C102.604 144.502 102.373 144.759 102.085 144.949C101.801 145.138 101.492 145.278 101.159 145.369V145.483C101.515 145.506 101.873 145.631 102.233 145.858C102.593 146.085 102.894 146.411 103.136 146.835C103.379 147.259 103.5 147.778 103.5 148.392C103.5 148.975 103.367 149.5 103.102 149.966C102.837 150.432 102.419 150.801 101.847 151.074C101.275 151.347 100.53 151.483 99.6136 151.483H95.4091ZM96.8182 150.233H99.6136C100.534 150.233 101.188 150.055 101.574 149.699C101.964 149.339 102.159 148.903 102.159 148.392C102.159 147.998 102.059 147.634 101.858 147.301C101.657 146.964 101.371 146.695 101 146.494C100.629 146.29 100.189 146.187 99.6818 146.187H96.8182V150.233ZM96.8182 144.96H99.4318C99.8561 144.96 100.239 144.877 100.58 144.71C100.924 144.544 101.197 144.309 101.398 144.006C101.602 143.703 101.705 143.347 101.705 142.937C101.705 142.426 101.527 141.992 101.17 141.636C100.814 141.276 100.25 141.097 99.4773 141.097H96.8182V144.96ZM109.179 151.665C108.391 151.665 107.7 151.477 107.105 151.102C106.514 150.727 106.052 150.203 105.719 149.528C105.389 148.854 105.224 148.066 105.224 147.165C105.224 146.256 105.389 145.462 105.719 144.784C106.052 144.106 106.514 143.58 107.105 143.205C107.7 142.83 108.391 142.642 109.179 142.642C109.967 142.642 110.656 142.83 111.247 143.205C111.842 143.58 112.304 144.106 112.634 144.784C112.967 145.462 113.134 146.256 113.134 147.165C113.134 148.066 112.967 148.854 112.634 149.528C112.304 150.203 111.842 150.727 111.247 151.102C110.656 151.477 109.967 151.665 109.179 151.665ZM109.179 150.46C109.777 150.46 110.27 150.307 110.656 150C111.043 149.693 111.329 149.29 111.514 148.79C111.7 148.29 111.793 147.748 111.793 147.165C111.793 146.581 111.7 146.038 111.514 145.534C111.329 145.03 111.043 144.623 110.656 144.312C110.27 144.002 109.777 143.847 109.179 143.847C108.58 143.847 108.088 144.002 107.702 144.312C107.315 144.623 107.029 145.03 106.844 145.534C106.658 146.038 106.565 146.581 106.565 147.165C106.565 147.748 106.658 148.29 106.844 148.79C107.029 149.29 107.315 149.693 107.702 150C108.088 150.307 108.58 150.46 109.179 150.46ZM117.749 151.687C117.196 151.687 116.694 151.583 116.243 151.375C115.792 151.163 115.434 150.858 115.169 150.46C114.904 150.059 114.771 149.574 114.771 149.006C114.771 148.506 114.87 148.1 115.067 147.79C115.264 147.475 115.527 147.229 115.857 147.051C116.186 146.873 116.55 146.74 116.947 146.653C117.349 146.562 117.752 146.49 118.158 146.437C118.688 146.369 119.118 146.318 119.447 146.284C119.781 146.246 120.023 146.184 120.175 146.097C120.33 146.009 120.408 145.858 120.408 145.642V145.597C120.408 145.036 120.254 144.6 119.947 144.29C119.644 143.979 119.184 143.824 118.567 143.824C117.927 143.824 117.425 143.964 117.061 144.244C116.697 144.525 116.442 144.824 116.294 145.142L115.021 144.687C115.249 144.157 115.552 143.744 115.93 143.449C116.313 143.15 116.73 142.941 117.18 142.824C117.635 142.703 118.082 142.642 118.521 142.642C118.802 142.642 119.124 142.676 119.487 142.744C119.855 142.809 120.209 142.943 120.55 143.148C120.894 143.352 121.18 143.661 121.408 144.074C121.635 144.487 121.749 145.04 121.749 145.733V151.483H120.408V150.301H120.339C120.249 150.49 120.097 150.693 119.885 150.909C119.673 151.125 119.391 151.309 119.038 151.46C118.686 151.612 118.256 151.687 117.749 151.687ZM117.953 150.483C118.483 150.483 118.93 150.379 119.294 150.17C119.661 149.962 119.938 149.693 120.124 149.364C120.313 149.034 120.408 148.687 120.408 148.324V147.097C120.351 147.165 120.226 147.227 120.033 147.284C119.843 147.337 119.624 147.384 119.374 147.426C119.127 147.464 118.887 147.498 118.652 147.528C118.421 147.555 118.233 147.578 118.089 147.597C117.741 147.642 117.415 147.716 117.112 147.818C116.813 147.917 116.571 148.066 116.385 148.267C116.203 148.464 116.112 148.733 116.112 149.074C116.112 149.54 116.285 149.892 116.629 150.131C116.978 150.365 117.419 150.483 117.953 150.483ZM124.196 151.483V142.756H125.491V144.074H125.582C125.741 143.642 126.029 143.292 126.446 143.023C126.863 142.754 127.332 142.619 127.855 142.619C127.954 142.619 128.077 142.621 128.224 142.625C128.372 142.629 128.484 142.634 128.56 142.642V144.006C128.514 143.994 128.41 143.977 128.247 143.955C128.088 143.928 127.92 143.915 127.741 143.915C127.317 143.915 126.938 144.004 126.605 144.182C126.276 144.356 126.014 144.598 125.821 144.909C125.632 145.216 125.537 145.566 125.537 145.96V151.483H124.196ZM133.179 151.665C132.452 151.665 131.81 151.481 131.253 151.114C130.696 150.742 130.26 150.22 129.946 149.545C129.632 148.867 129.474 148.066 129.474 147.142C129.474 146.225 129.632 145.43 129.946 144.756C130.26 144.081 130.698 143.561 131.259 143.193C131.819 142.826 132.467 142.642 133.202 142.642C133.77 142.642 134.219 142.737 134.548 142.926C134.882 143.112 135.135 143.324 135.31 143.562C135.488 143.797 135.626 143.99 135.724 144.142H135.838V139.847H137.179V151.483H135.884V150.142H135.724C135.626 150.301 135.486 150.502 135.304 150.744C135.122 150.983 134.863 151.197 134.526 151.386C134.188 151.572 133.74 151.665 133.179 151.665ZM133.361 150.46C133.899 150.46 134.353 150.32 134.724 150.04C135.096 149.756 135.378 149.364 135.571 148.864C135.764 148.36 135.861 147.778 135.861 147.119C135.861 146.468 135.766 145.898 135.577 145.409C135.387 144.917 135.107 144.534 134.736 144.261C134.365 143.985 133.906 143.847 133.361 143.847C132.793 143.847 132.319 143.992 131.94 144.284C131.565 144.572 131.283 144.964 131.094 145.46C130.908 145.953 130.815 146.506 130.815 147.119C130.815 147.74 130.91 148.305 131.099 148.812C131.293 149.316 131.577 149.718 131.952 150.017C132.33 150.312 132.8 150.46 133.361 150.46Z" fill="#CDCDCD"/>
<mask id="mask1_47_447" style="mask-type:alpha" maskUnits="userSpaceOnUse" x="56" y="191" width="30" height="31">
<rect x="56" y="191.983" width="30" height="30" fill="#D9D9D9"/>
</mask>
<g mask="url(#mask1_47_447)">
<path d="M71 214.483C69.8333 214.483 68.7188 214.665 67.6563 215.03C66.5938 215.394 65.625 215.941 64.75 216.67V216.983H77.25V216.67C76.375 215.941 75.4062 215.394 74.3438 215.03C73.2812 214.665 72.1667 214.483 71 214.483ZM62.25 215.545C63.375 214.441 64.6823 213.571 66.1719 212.936C67.6615 212.301 69.2708 211.983 71 211.983C72.7292 211.983 74.3385 212.301 75.8281 212.936C77.3177 213.571 78.625 214.441 79.75 215.545V199.483H62.25V215.545ZM71 209.483C69.7917 209.483 68.7604 209.056 67.9062 208.202C67.0521 207.347 66.625 206.316 66.625 205.108C66.625 203.9 67.0521 202.868 67.9062 202.014C68.7604 201.16 69.7917 200.733 71 200.733C72.2083 200.733 73.2396 201.16 74.0938 202.014C74.9479 202.868 75.375 203.9 75.375 205.108C75.375 206.316 74.9479 207.347 74.0938 208.202C73.2396 209.056 72.2083 209.483 71 209.483ZM71 206.983C71.5208 206.983 71.9635 206.801 72.3281 206.436C72.6927 206.071 72.875 205.629 72.875 205.108C72.875 204.587 72.6927 204.144 72.3281 203.78C71.9635 203.415 71.5208 203.233 71 203.233C70.4792 203.233 70.0365 203.415 69.6719 203.78C69.3073 204.144 69.125 204.587 69.125 205.108C69.125 205.629 69.3073 206.071 69.6719 206.436C70.0365 206.801 70.4792 206.983 71 206.983ZM62.25 219.483C61.5625 219.483 60.974 219.238 60.4844 218.749C59.9948 218.259 59.75 217.67 59.75 216.983V199.483C59.75 198.795 59.9948 198.207 60.4844 197.717C60.974 197.228 61.5625 196.983 62.25 196.983H63.5V194.483H66V196.983H76V194.483H78.5V196.983H79.75C80.4375 196.983 81.026 197.228 81.5156 197.717C82.0052 198.207 82.25 198.795 82.25 199.483V216.983C82.25 217.67 82.0052 218.259 81.5156 218.749C81.026 219.238 80.4375 219.483 79.75 219.483H62.25Z" fill="#CDCDCD"/>
</g>
<path d="M104.773 204.483H103.364C103.28 204.078 103.134 203.722 102.926 203.415C102.722 203.108 102.472 202.85 102.176 202.642C101.884 202.43 101.561 202.271 101.205 202.165C100.848 202.059 100.477 202.006 100.091 202.006C99.3864 202.006 98.7481 202.184 98.1761 202.54C97.608 202.896 97.1553 203.42 96.8182 204.114C96.4848 204.807 96.3182 205.657 96.3182 206.665C96.3182 207.672 96.4848 208.523 96.8182 209.216C97.1553 209.909 97.608 210.434 98.1761 210.79C98.7481 211.146 99.3864 211.324 100.091 211.324C100.477 211.324 100.848 211.271 101.205 211.165C101.561 211.059 101.884 210.901 102.176 210.693C102.472 210.481 102.722 210.222 102.926 209.915C103.134 209.604 103.28 209.248 103.364 208.847H104.773C104.667 209.441 104.473 209.973 104.193 210.443C103.913 210.913 103.564 211.312 103.148 211.642C102.731 211.968 102.263 212.216 101.744 212.386C101.229 212.557 100.678 212.642 100.091 212.642C99.0985 212.642 98.2159 212.4 97.4432 211.915C96.6705 211.43 96.0625 210.74 95.6193 209.847C95.1761 208.953 94.9545 207.892 94.9545 206.665C94.9545 205.437 95.1761 204.377 95.6193 203.483C96.0625 202.589 96.6705 201.9 97.4432 201.415C98.2159 200.93 99.0985 200.687 100.091 200.687C100.678 200.687 101.229 200.773 101.744 200.943C102.263 201.114 102.731 201.364 103.148 201.693C103.564 202.019 103.913 202.417 104.193 202.886C104.473 203.352 104.667 203.884 104.773 204.483ZM110.413 212.665C109.625 212.665 108.934 212.477 108.339 212.102C107.749 211.727 107.286 211.203 106.953 210.528C106.624 209.854 106.459 209.066 106.459 208.165C106.459 207.256 106.624 206.462 106.953 205.784C107.286 205.106 107.749 204.58 108.339 204.205C108.934 203.83 109.625 203.642 110.413 203.642C111.201 203.642 111.891 203.83 112.482 204.205C113.076 204.58 113.538 205.106 113.868 205.784C114.201 206.462 114.368 207.256 114.368 208.165C114.368 209.066 114.201 209.854 113.868 210.528C113.538 211.203 113.076 211.727 112.482 212.102C111.891 212.477 111.201 212.665 110.413 212.665ZM110.413 211.46C111.012 211.46 111.504 211.307 111.891 211C112.277 210.693 112.563 210.29 112.749 209.79C112.934 209.29 113.027 208.748 113.027 208.165C113.027 207.581 112.934 207.038 112.749 206.534C112.563 206.03 112.277 205.623 111.891 205.312C111.504 205.002 111.012 204.847 110.413 204.847C109.815 204.847 109.322 205.002 108.936 205.312C108.55 205.623 108.264 206.03 108.078 206.534C107.893 207.038 107.8 207.581 107.8 208.165C107.8 208.748 107.893 209.29 108.078 209.79C108.264 210.29 108.55 210.693 108.936 211C109.322 211.307 109.815 211.46 110.413 211.46ZM117.756 207.233V212.483H116.415V203.756H117.71V205.119H117.824C118.028 204.676 118.339 204.32 118.756 204.051C119.172 203.778 119.71 203.642 120.369 203.642C120.96 203.642 121.477 203.763 121.92 204.006C122.364 204.244 122.708 204.608 122.955 205.097C123.201 205.581 123.324 206.195 123.324 206.937V212.483H121.983V207.028C121.983 206.343 121.805 205.809 121.449 205.426C121.093 205.04 120.604 204.847 119.983 204.847C119.555 204.847 119.172 204.939 118.835 205.125C118.502 205.311 118.239 205.581 118.045 205.937C117.852 206.294 117.756 206.725 117.756 207.233ZM129.57 203.756V204.892H125.047V203.756H129.57ZM126.365 201.665H127.706V209.983C127.706 210.362 127.761 210.646 127.871 210.835C127.984 211.021 128.128 211.146 128.303 211.21C128.481 211.271 128.668 211.301 128.865 211.301C129.013 211.301 129.134 211.294 129.229 211.278C129.323 211.259 129.399 211.244 129.456 211.233L129.729 212.437C129.638 212.472 129.511 212.506 129.348 212.54C129.185 212.578 128.979 212.597 128.729 212.597C128.35 212.597 127.979 212.515 127.615 212.352C127.255 212.189 126.956 211.941 126.717 211.608C126.482 211.275 126.365 210.854 126.365 210.347V201.665ZM134.155 212.687C133.602 212.687 133.1 212.583 132.649 212.375C132.198 212.163 131.84 211.858 131.575 211.46C131.31 211.059 131.178 210.574 131.178 210.006C131.178 209.506 131.276 209.1 131.473 208.79C131.67 208.475 131.933 208.229 132.263 208.051C132.592 207.873 132.956 207.74 133.354 207.653C133.755 207.562 134.159 207.49 134.564 207.437C135.094 207.369 135.524 207.318 135.854 207.284C136.187 207.246 136.429 207.184 136.581 207.097C136.736 207.009 136.814 206.858 136.814 206.642V206.597C136.814 206.036 136.661 205.6 136.354 205.29C136.051 204.979 135.59 204.824 134.973 204.824C134.333 204.824 133.831 204.964 133.467 205.244C133.104 205.525 132.848 205.824 132.7 206.142L131.428 205.687C131.655 205.157 131.958 204.744 132.337 204.449C132.719 204.15 133.136 203.941 133.587 203.824C134.041 203.703 134.488 203.642 134.928 203.642C135.208 203.642 135.53 203.676 135.893 203.744C136.261 203.809 136.615 203.943 136.956 204.148C137.301 204.352 137.587 204.661 137.814 205.074C138.041 205.487 138.155 206.04 138.155 206.733V212.483H136.814V211.301H136.746C136.655 211.49 136.503 211.693 136.291 211.909C136.079 212.125 135.797 212.309 135.445 212.46C135.092 212.612 134.662 212.687 134.155 212.687ZM134.359 211.483C134.89 211.483 135.337 211.379 135.7 211.17C136.068 210.962 136.344 210.693 136.53 210.364C136.719 210.034 136.814 209.687 136.814 209.324V208.097C136.757 208.165 136.632 208.227 136.439 208.284C136.25 208.337 136.03 208.384 135.78 208.426C135.534 208.464 135.293 208.498 135.058 208.528C134.827 208.555 134.64 208.578 134.496 208.597C134.147 208.642 133.821 208.716 133.518 208.818C133.219 208.917 132.977 209.066 132.791 209.267C132.609 209.464 132.518 209.733 132.518 210.074C132.518 210.54 132.691 210.892 133.036 211.131C133.384 211.365 133.825 211.483 134.359 211.483ZM144.148 212.665C143.33 212.665 142.625 212.472 142.034 212.085C141.443 211.699 140.989 211.167 140.67 210.489C140.352 209.811 140.193 209.036 140.193 208.165C140.193 207.278 140.356 206.496 140.682 205.818C141.011 205.136 141.47 204.604 142.057 204.222C142.648 203.835 143.337 203.642 144.125 203.642C144.739 203.642 145.292 203.756 145.784 203.983C146.277 204.21 146.68 204.528 146.994 204.937C147.309 205.347 147.504 205.824 147.58 206.369H146.239C146.136 205.972 145.909 205.619 145.557 205.312C145.208 205.002 144.739 204.847 144.148 204.847C143.625 204.847 143.167 204.983 142.773 205.256C142.383 205.525 142.078 205.905 141.858 206.398C141.642 206.886 141.534 207.46 141.534 208.119C141.534 208.794 141.64 209.381 141.852 209.881C142.068 210.381 142.371 210.769 142.761 211.045C143.155 211.322 143.617 211.46 144.148 211.46C144.496 211.46 144.812 211.4 145.097 211.278C145.381 211.157 145.621 210.983 145.818 210.756C146.015 210.528 146.155 210.256 146.239 209.937H147.58C147.504 210.453 147.316 210.917 147.017 211.33C146.722 211.739 146.33 212.064 145.841 212.307C145.356 212.545 144.792 212.665 144.148 212.665ZM153.335 203.756V204.892H148.812V203.756H153.335ZM150.131 201.665H151.472V209.983C151.472 210.362 151.527 210.646 151.636 210.835C151.75 211.021 151.894 211.146 152.068 211.21C152.246 211.271 152.434 211.301 152.631 211.301C152.778 211.301 152.9 211.294 152.994 211.278C153.089 211.259 153.165 211.244 153.222 211.233L153.494 212.437C153.403 212.472 153.277 212.506 153.114 212.54C152.951 212.578 152.744 212.597 152.494 212.597C152.116 212.597 151.744 212.515 151.381 212.352C151.021 212.189 150.722 211.941 150.483 211.608C150.248 211.275 150.131 210.854 150.131 210.347V201.665ZM161.378 205.71L160.173 206.051C160.098 205.85 159.986 205.655 159.838 205.466C159.694 205.273 159.497 205.114 159.247 204.989C158.997 204.864 158.677 204.801 158.287 204.801C157.753 204.801 157.308 204.924 156.952 205.17C156.599 205.413 156.423 205.722 156.423 206.097C156.423 206.43 156.545 206.693 156.787 206.886C157.029 207.08 157.408 207.24 157.923 207.369L159.219 207.687C159.999 207.877 160.58 208.167 160.963 208.557C161.346 208.943 161.537 209.441 161.537 210.051C161.537 210.551 161.393 210.998 161.105 211.392C160.821 211.786 160.423 212.097 159.912 212.324C159.401 212.551 158.806 212.665 158.128 212.665C157.238 212.665 156.501 212.472 155.918 212.085C155.334 211.699 154.965 211.134 154.81 210.392L156.082 210.074C156.204 210.544 156.433 210.896 156.77 211.131C157.111 211.365 157.556 211.483 158.105 211.483C158.73 211.483 159.226 211.35 159.594 211.085C159.965 210.816 160.151 210.494 160.151 210.119C160.151 209.816 160.045 209.562 159.832 209.358C159.62 209.15 159.295 208.994 158.855 208.892L157.401 208.551C156.601 208.362 156.014 208.068 155.639 207.67C155.268 207.269 155.082 206.767 155.082 206.165C155.082 205.672 155.221 205.237 155.497 204.858C155.777 204.479 156.158 204.182 156.639 203.966C157.124 203.75 157.673 203.642 158.287 203.642C159.151 203.642 159.829 203.831 160.321 204.21C160.817 204.589 161.17 205.089 161.378 205.71Z" fill="#CDCDCD"/>
</svg>
