<svg width="30" height="31" viewBox="0 0 30 31" fill="none" xmlns="http://www.w3.org/2000/svg">
<mask id="mask0_280554_2350" style="mask-type:alpha" maskUnits="userSpaceOnUse" x="0" y="0" width="30" height="31">
<rect y="0.965759" width="30" height="30" fill="#D9D9D9"/>
</mask>
<g mask="url(#mask0_280554_2350)">
<mask id="mask1_280554_2350" style="mask-type:alpha" maskUnits="userSpaceOnUse" x="2" y="3" width="26" height="26">
<rect x="2" y="2.99994" width="26" height="26" fill="#D9D9D9"/>
</mask>
<g mask="url(#mask1_280554_2350)">
<path d="M16.0833 25.7499C15.7764 25.7499 15.5191 25.6461 15.3115 25.4385C15.1038 25.2308 15 24.9736 15 24.6666C15 24.3597 15.1038 24.1024 15.3115 23.8947C15.5191 23.6871 15.7764 23.5833 16.0833 23.5833H22.5833V8.41661H16.0833C15.7764 8.41661 15.5191 8.31279 15.3115 8.10515C15.1038 7.89751 15 7.64022 15 7.33327C15 7.02633 15.1038 6.76904 15.3115 6.5614C15.5191 6.35376 15.7764 6.24994 16.0833 6.24994H22.5833C23.1792 6.24994 23.6892 6.46209 24.1135 6.8864C24.5378 7.3107 24.75 7.82077 24.75 8.41661V23.5833C24.75 24.1791 24.5378 24.6892 24.1135 25.1135C23.6892 25.5378 23.1792 25.7499 22.5833 25.7499H16.0833ZM14.1063 17.0833H6.33333C6.02639 17.0833 5.7691 16.9795 5.56146 16.7718C5.35382 16.5642 5.25 16.3069 5.25 15.9999C5.25 15.693 5.35382 15.4357 5.56146 15.2281C5.7691 15.0204 6.02639 14.9166 6.33333 14.9166H14.1063L12.075 12.8854C11.8764 12.6867 11.7771 12.443 11.7771 12.1541C11.7771 11.8652 11.8764 11.6124 12.075 11.3958C12.2736 11.1791 12.5264 11.0663 12.8333 11.0572C13.1403 11.0482 13.4021 11.152 13.6188 11.3687L17.4917 15.2416C17.7083 15.4583 17.8167 15.7111 17.8167 15.9999C17.8167 16.2888 17.7083 16.5416 17.4917 16.7583L13.6188 20.6312C13.4021 20.8479 13.1448 20.9517 12.8469 20.9426C12.549 20.9336 12.2917 20.8208 12.075 20.6041C11.8764 20.3874 11.7816 20.1301 11.7906 19.8322C11.7997 19.5343 11.9035 19.2861 12.1021 19.0874L14.1063 17.0833Z" fill="#CDCDCD"/>
</g>
</g>
</svg>
